<?xml version="1.0" encoding="utf-8"?>
<!-- Generator: Adobe Illustrator 19.0.0, SVG Export Plug-In . SVG Version: 6.00 Build 0)  -->
<svg version="1.1" xmlns="http://www.w3.org/2000/svg" xmlns:xlink="http://www.w3.org/1999/xlink" x="0px" y="0px"
	 viewBox="611 120 1833.3 553" style="enable-background:new 611 120 1833.3 553;" xml:space="preserve">
<style type="text/css">
	.st0{fill:url(#SVGID_1_);}
	.st1{fill:url(#SVGID_2_);}
	.st2{fill:url(#SVGID_3_);}
	.st3{fill:url(#SVGID_4_);}
	.st4{fill:url(#SVGID_5_);}
	.st5{fill:url(#SVGID_6_);}
	.st6{fill:url(#SVGID_7_);}
	.st7{fill:url(#SVGID_8_);}
	.st8{fill:url(#SVGID_9_);}
	.st9{fill:url(#SVGID_10_);}
	.st10{fill:url(#SVGID_11_);}
	.st11{fill:url(#SVGID_12_);}
	.st12{fill:url(#SVGID_13_);}
	.st13{fill:url(#SVGID_14_);}
	.st14{fill:url(#SVGID_15_);}
	.st15{fill:url(#SVGID_16_);}
	.st16{fill:url(#SVGID_17_);}
	.st17{fill:url(#SVGID_18_);}
	.st18{fill:url(#SVGID_19_);}
	.st19{fill:url(#SVGID_20_);}
	.st20{fill:url(#SVGID_21_);}
	.st21{fill:url(#SVGID_22_);}
	.st22{fill:url(#SVGID_23_);}
	.st23{fill:url(#SVGID_24_);}
	.st24{fill:url(#SVGID_25_);}
	.st25{fill:url(#SVGID_26_);}
	.st26{fill:url(#SVGID_27_);}
	.st27{fill:url(#SVGID_28_);}
	.st28{fill:url(#SVGID_29_);}
	.st29{fill:url(#SVGID_30_);}
	.st30{fill:url(#SVGID_31_);}
	.st31{fill:url(#SVGID_32_);}
	.st32{fill:url(#SVGID_33_);}
	.st33{fill:url(#SVGID_34_);}
	.st34{fill:url(#SVGID_35_);}
	.st35{fill:url(#SVGID_36_);}
	.st36{fill:#E4DF24;}
	.st37{fill:#60A443;}
	.st38{fill:#437239;}
	.st39{fill:#0365AE;}
	.st40{fill:#185768;}
	.st41{fill:#00446B;}
</style>
<g id="Capa_1">
	<g id="Capa_1_1_">
		<g>
			<g>
				
					<linearGradient id="SVGID_1_" gradientUnits="userSpaceOnUse" x1="288.6045" y1="344.9205" x2="604.7702" y2="342.4797" gradientTransform="matrix(1 0 0 1 504 -28)">
					<stop  offset="0" style="stop-color:#00446B"/>
					<stop  offset="0.1098" style="stop-color:#044770"/>
					<stop  offset="0.2373" style="stop-color:#12517E"/>
					<stop  offset="0.3737" style="stop-color:#276295"/>
					<stop  offset="0.5154" style="stop-color:#4579B6"/>
					<stop  offset="0.555" style="stop-color:#4F80C0"/>
					<stop  offset="0.6132" style="stop-color:#3C71AB"/>
					<stop  offset="0.7099" style="stop-color:#225E8F"/>
					<stop  offset="0.8069" style="stop-color:#0F4F7B"/>
					<stop  offset="0.9037" style="stop-color:#04476F"/>
					<stop  offset="1" style="stop-color:#00446B"/>
				</linearGradient>
				<path class="st0" d="M1018.6,291.4c0.3,20.5-3.3,33.4-4.9,38.1c8.9,3.1,15.2,6.4,19.5,9.3c7.9-14.1,12.4-30.2,12.7-47.4
					L1018.6,291.4L1018.6,291.4z"/>
			</g>
			<g>
				
					<linearGradient id="SVGID_2_" gradientUnits="userSpaceOnUse" x1="288.1118" y1="294.1335" x2="604.3959" y2="291.6917" gradientTransform="matrix(1 0 0 1 504 -28)">
					<stop  offset="0" style="stop-color:#00446B"/>
					<stop  offset="0.1098" style="stop-color:#044770"/>
					<stop  offset="0.2373" style="stop-color:#12517E"/>
					<stop  offset="0.3737" style="stop-color:#276295"/>
					<stop  offset="0.5154" style="stop-color:#4579B6"/>
					<stop  offset="0.555" style="stop-color:#4F80C0"/>
					<stop  offset="0.6132" style="stop-color:#3C71AB"/>
					<stop  offset="0.7099" style="stop-color:#225E8F"/>
					<stop  offset="0.8069" style="stop-color:#0F4F7B"/>
					<stop  offset="0.9037" style="stop-color:#04476F"/>
					<stop  offset="1" style="stop-color:#00446B"/>
				</linearGradient>
				<path class="st1" d="M1019.7,287.1h27.4c-0.5-16.6-5-32.2-12.6-45.8c-4.3,3.1-10.5,6.6-19.5,9.7
					C1018,264.7,1019.4,276.8,1019.7,287.1z"/>
			</g>
			<g>
				<g>
					
						<linearGradient id="SVGID_3_" gradientUnits="userSpaceOnUse" x1="287.7075" y1="233.1533" x2="603.877" y2="230.7124" gradientTransform="matrix(1 0 0 1 504 -28)">
						<stop  offset="0" style="stop-color:#00446B"/>
						<stop  offset="0.1098" style="stop-color:#044770"/>
						<stop  offset="0.2373" style="stop-color:#12517E"/>
						<stop  offset="0.3737" style="stop-color:#276295"/>
						<stop  offset="0.5154" style="stop-color:#4579B6"/>
						<stop  offset="0.555" style="stop-color:#4F80C0"/>
						<stop  offset="0.6132" style="stop-color:#3C71AB"/>
						<stop  offset="0.7099" style="stop-color:#225E8F"/>
						<stop  offset="0.8069" style="stop-color:#0F4F7B"/>
						<stop  offset="0.9037" style="stop-color:#04476F"/>
						<stop  offset="1" style="stop-color:#00446B"/>
					</linearGradient>
					<path class="st2" d="M943.4,190.1c-4.7,5.5-11.1,14.3-16.7,26.2c5.4,0.9,11.2,1.5,17.4,1.5v-27.7
						C943.9,190.1,943.7,190.1,943.4,190.1z"/>
				</g>
				<g>
					
						<linearGradient id="SVGID_4_" gradientUnits="userSpaceOnUse" x1="287.6616" y1="232.0517" x2="603.9271" y2="229.6103" gradientTransform="matrix(1 0 0 1 504 -28)">
						<stop  offset="0" style="stop-color:#00446B"/>
						<stop  offset="0.1098" style="stop-color:#044770"/>
						<stop  offset="0.2373" style="stop-color:#12517E"/>
						<stop  offset="0.3737" style="stop-color:#276295"/>
						<stop  offset="0.5154" style="stop-color:#4579B6"/>
						<stop  offset="0.555" style="stop-color:#4F80C0"/>
						<stop  offset="0.6132" style="stop-color:#3C71AB"/>
						<stop  offset="0.7099" style="stop-color:#225E8F"/>
						<stop  offset="0.8069" style="stop-color:#0F4F7B"/>
						<stop  offset="0.9037" style="stop-color:#04476F"/>
						<stop  offset="1" style="stop-color:#00446B"/>
					</linearGradient>
					<path class="st3" d="M931.7,191.2c-6.9,4.8-15.8,11.6-24.2,19.9c4.4,1.6,9.3,3.1,14.8,4.3c4.9-10.7,10.5-19.1,15.2-24.9
						C935.5,190.7,933.6,190.9,931.7,191.2z"/>
				</g>
				<g>
					
						<linearGradient id="SVGID_5_" gradientUnits="userSpaceOnUse" x1="287.6807" y1="233.1408" x2="603.9151" y2="230.6994" gradientTransform="matrix(1 0 0 1 504 -28)">
						<stop  offset="0" style="stop-color:#00446B"/>
						<stop  offset="0.1098" style="stop-color:#044770"/>
						<stop  offset="0.2373" style="stop-color:#12517E"/>
						<stop  offset="0.3737" style="stop-color:#276295"/>
						<stop  offset="0.5154" style="stop-color:#4579B6"/>
						<stop  offset="0.555" style="stop-color:#4F80C0"/>
						<stop  offset="0.6132" style="stop-color:#3C71AB"/>
						<stop  offset="0.7099" style="stop-color:#225E8F"/>
						<stop  offset="0.8069" style="stop-color:#0F4F7B"/>
						<stop  offset="0.9037" style="stop-color:#04476F"/>
						<stop  offset="1" style="stop-color:#00446B"/>
					</linearGradient>
					<path class="st4" d="M948.4,190.1v27.7c5.9-0.2,12.1-0.8,18.7-2.1c-5.5-11.6-11.8-20.2-16.4-25.6
						C949.9,190.1,949.2,190.1,948.4,190.1z"/>
				</g>
				<g>
					
						<linearGradient id="SVGID_6_" gradientUnits="userSpaceOnUse" x1="288.5015" y1="335.9071" x2="604.6729" y2="333.466" gradientTransform="matrix(1 0 0 1 504 -28)">
						<stop  offset="0" style="stop-color:#00446B"/>
						<stop  offset="0.1098" style="stop-color:#044770"/>
						<stop  offset="0.2373" style="stop-color:#12517E"/>
						<stop  offset="0.3737" style="stop-color:#276295"/>
						<stop  offset="0.5154" style="stop-color:#4579B6"/>
						<stop  offset="0.555" style="stop-color:#4F80C0"/>
						<stop  offset="0.6132" style="stop-color:#3C71AB"/>
						<stop  offset="0.7099" style="stop-color:#225E8F"/>
						<stop  offset="0.8069" style="stop-color:#0F4F7B"/>
						<stop  offset="0.9037" style="stop-color:#04476F"/>
						<stop  offset="1" style="stop-color:#00446B"/>
					</linearGradient>
					<path class="st5" d="M980.7,291.4h-32.1v28.3c11.5,0.3,21.6,1,30.5,2.1C979.8,317.2,980.9,307.4,980.7,291.4z"/>
				</g>
				<g>
					
						<linearGradient id="SVGID_7_" gradientUnits="userSpaceOnUse" x1="287.8237" y1="256.8605" x2="604.1157" y2="254.4188" gradientTransform="matrix(1 0 0 1 504 -28)">
						<stop  offset="0" style="stop-color:#00446B"/>
						<stop  offset="0.1098" style="stop-color:#044770"/>
						<stop  offset="0.2373" style="stop-color:#12517E"/>
						<stop  offset="0.3737" style="stop-color:#276295"/>
						<stop  offset="0.5154" style="stop-color:#4579B6"/>
						<stop  offset="0.555" style="stop-color:#4F80C0"/>
						<stop  offset="0.6132" style="stop-color:#3C71AB"/>
						<stop  offset="0.7099" style="stop-color:#225E8F"/>
						<stop  offset="0.8069" style="stop-color:#0F4F7B"/>
						<stop  offset="0.9037" style="stop-color:#04476F"/>
						<stop  offset="1" style="stop-color:#00446B"/>
					</linearGradient>
					<path class="st6" d="M1014.1,246.8c8.5-3,14.3-6.3,18.2-9.2c-7.3-11.8-17.1-22-28.5-29.9c-3.4,1.7-6.8,3.2-10.1,4.6
						C1002.8,222.1,1010.8,233.9,1014.1,246.8z"/>
				</g>
				<g>
					
						<linearGradient id="SVGID_8_" gradientUnits="userSpaceOnUse" x1="288.1958" y1="299.4439" x2="604.4266" y2="297.0025" gradientTransform="matrix(1 0 0 1 504 -28)">
						<stop  offset="0" style="stop-color:#00446B"/>
						<stop  offset="0.1098" style="stop-color:#044770"/>
						<stop  offset="0.2373" style="stop-color:#12517E"/>
						<stop  offset="0.3737" style="stop-color:#276295"/>
						<stop  offset="0.5154" style="stop-color:#4579B6"/>
						<stop  offset="0.555" style="stop-color:#4F80C0"/>
						<stop  offset="0.6132" style="stop-color:#3C71AB"/>
						<stop  offset="0.7099" style="stop-color:#225E8F"/>
						<stop  offset="0.8069" style="stop-color:#0F4F7B"/>
						<stop  offset="0.9037" style="stop-color:#04476F"/>
						<stop  offset="1" style="stop-color:#00446B"/>
					</linearGradient>
					<path class="st7" d="M982.9,258c1.1,11.2,1.7,20.9,1.9,29.1h30.6c-0.4-10-1.6-21.6-4.4-34.7
						C1003.4,254.7,994.1,256.7,982.9,258z"/>
				</g>
				<g>
					
						<linearGradient id="SVGID_9_" gradientUnits="userSpaceOnUse" x1="288.4351" y1="339.3895" x2="604.7783" y2="336.9473" gradientTransform="matrix(1 0 0 1 504 -28)">
						<stop  offset="0" style="stop-color:#00446B"/>
						<stop  offset="0.1098" style="stop-color:#044770"/>
						<stop  offset="0.2373" style="stop-color:#12517E"/>
						<stop  offset="0.3737" style="stop-color:#276295"/>
						<stop  offset="0.5154" style="stop-color:#4579B6"/>
						<stop  offset="0.555" style="stop-color:#4F80C0"/>
						<stop  offset="0.6132" style="stop-color:#3C71AB"/>
						<stop  offset="0.7099" style="stop-color:#225E8F"/>
						<stop  offset="0.8069" style="stop-color:#0F4F7B"/>
						<stop  offset="0.9037" style="stop-color:#04476F"/>
						<stop  offset="1" style="stop-color:#00446B"/>
					</linearGradient>
					<path class="st8" d="M1015.6,291.4H985c0.3,16.2-0.8,26.1-1.5,30.9c11,1.5,20.1,3.6,27.6,5.9
						C1012.4,323.8,1015.8,311.3,1015.6,291.4z"/>
				</g>
				<g>
					
						<linearGradient id="SVGID_10_" gradientUnits="userSpaceOnUse" x1="288.2124" y1="302.2166" x2="604.4449" y2="299.7749" gradientTransform="matrix(1 0 0 1 504 -28)">
						<stop  offset="0" style="stop-color:#00446B"/>
						<stop  offset="0.1098" style="stop-color:#044770"/>
						<stop  offset="0.2373" style="stop-color:#12517E"/>
						<stop  offset="0.3737" style="stop-color:#276295"/>
						<stop  offset="0.5154" style="stop-color:#4579B6"/>
						<stop  offset="0.555" style="stop-color:#4F80C0"/>
						<stop  offset="0.6132" style="stop-color:#3C71AB"/>
						<stop  offset="0.7099" style="stop-color:#225E8F"/>
						<stop  offset="0.8069" style="stop-color:#0F4F7B"/>
						<stop  offset="0.9037" style="stop-color:#04476F"/>
						<stop  offset="1" style="stop-color:#00446B"/>
					</linearGradient>
					<path class="st9" d="M951,259.7c-0.8,0-1.7,0-2.5,0v27.4h32c-0.2-8.1-0.8-17.6-1.8-28.7C970.4,259.2,961.2,259.7,951,259.7z"/>
				</g>
				<g>
					
						<linearGradient id="SVGID_11_" gradientUnits="userSpaceOnUse" x1="288.2246" y1="301.5749" x2="604.4213" y2="299.1339" gradientTransform="matrix(1 0 0 1 504 -28)">
						<stop  offset="0" style="stop-color:#00446B"/>
						<stop  offset="0.1098" style="stop-color:#044770"/>
						<stop  offset="0.2373" style="stop-color:#12517E"/>
						<stop  offset="0.3737" style="stop-color:#276295"/>
						<stop  offset="0.5154" style="stop-color:#4579B6"/>
						<stop  offset="0.555" style="stop-color:#4F80C0"/>
						<stop  offset="0.6132" style="stop-color:#3C71AB"/>
						<stop  offset="0.7099" style="stop-color:#225E8F"/>
						<stop  offset="0.8069" style="stop-color:#0F4F7B"/>
						<stop  offset="0.9037" style="stop-color:#04476F"/>
						<stop  offset="1" style="stop-color:#00446B"/>
					</linearGradient>
					<path class="st10" d="M915.5,257.9c-1.1,11.3-1.7,20.9-1.9,29.2h30.5v-27.5C933.5,259.4,924,258.8,915.5,257.9z"/>
				</g>
				<g>
					
						<linearGradient id="SVGID_12_" gradientUnits="userSpaceOnUse" x1="288.1865" y1="298.353" x2="604.4285" y2="295.9117" gradientTransform="matrix(1 0 0 1 504 -28)">
						<stop  offset="0" style="stop-color:#00446B"/>
						<stop  offset="0.1098" style="stop-color:#044770"/>
						<stop  offset="0.2373" style="stop-color:#12517E"/>
						<stop  offset="0.3737" style="stop-color:#276295"/>
						<stop  offset="0.5154" style="stop-color:#4579B6"/>
						<stop  offset="0.555" style="stop-color:#4F80C0"/>
						<stop  offset="0.6132" style="stop-color:#3C71AB"/>
						<stop  offset="0.7099" style="stop-color:#225E8F"/>
						<stop  offset="0.8069" style="stop-color:#0F4F7B"/>
						<stop  offset="0.9037" style="stop-color:#04476F"/>
						<stop  offset="1" style="stop-color:#00446B"/>
					</linearGradient>
					<path class="st11" d="M883.2,252c-2.8,13.3-4.2,25.1-4.5,35.1h30.6c0.2-8.4,0.8-18.2,1.9-29.7
						C900.2,256.1,890.9,254.2,883.2,252z"/>
				</g>
				<g>
					
						<linearGradient id="SVGID_13_" gradientUnits="userSpaceOnUse" x1="287.9077" y1="263.2939" x2="604.1546" y2="260.8529" gradientTransform="matrix(1 0 0 1 504 -28)">
						<stop  offset="0" style="stop-color:#00446B"/>
						<stop  offset="0.1098" style="stop-color:#044770"/>
						<stop  offset="0.2373" style="stop-color:#12517E"/>
						<stop  offset="0.3737" style="stop-color:#276295"/>
						<stop  offset="0.5154" style="stop-color:#4579B6"/>
						<stop  offset="0.555" style="stop-color:#4F80C0"/>
						<stop  offset="0.6132" style="stop-color:#3C71AB"/>
						<stop  offset="0.7099" style="stop-color:#225E8F"/>
						<stop  offset="0.8069" style="stop-color:#0F4F7B"/>
						<stop  offset="0.9037" style="stop-color:#04476F"/>
						<stop  offset="1" style="stop-color:#00446B"/>
					</linearGradient>
					<path class="st12" d="M973.3,218.8c4.1,9.8,7.5,21.5,9.1,34.9c11.2-1.3,20.2-3.3,27.6-5.6c-3.1-12.6-11.3-24.3-20.7-34.2
						C983.8,215.9,978.5,217.6,973.3,218.8z"/>
				</g>
				<g>
					
						<linearGradient id="SVGID_14_" gradientUnits="userSpaceOnUse" x1="287.9429" y1="266.8751" x2="604.1765" y2="264.4337" gradientTransform="matrix(1 0 0 1 504 -28)">
						<stop  offset="0" style="stop-color:#00446B"/>
						<stop  offset="0.1098" style="stop-color:#044770"/>
						<stop  offset="0.2373" style="stop-color:#12517E"/>
						<stop  offset="0.3737" style="stop-color:#276295"/>
						<stop  offset="0.5154" style="stop-color:#4579B6"/>
						<stop  offset="0.555" style="stop-color:#4F80C0"/>
						<stop  offset="0.6132" style="stop-color:#3C71AB"/>
						<stop  offset="0.7099" style="stop-color:#225E8F"/>
						<stop  offset="0.8069" style="stop-color:#0F4F7B"/>
						<stop  offset="0.9037" style="stop-color:#04476F"/>
						<stop  offset="1" style="stop-color:#00446B"/>
					</linearGradient>
					<path class="st13" d="M948.4,222.1v33.3c11.2,0.1,21-0.4,29.7-1.2c-1.6-13.3-5-24.8-9.2-34.4
						C961.8,221.2,954.9,221.9,948.4,222.1z"/>
				</g>
				<g>
					
						<linearGradient id="SVGID_15_" gradientUnits="userSpaceOnUse" x1="287.9043" y1="262.7226" x2="604.1696" y2="260.281" gradientTransform="matrix(1 0 0 1 504 -28)">
						<stop  offset="0" style="stop-color:#00446B"/>
						<stop  offset="0.1098" style="stop-color:#044770"/>
						<stop  offset="0.2373" style="stop-color:#12517E"/>
						<stop  offset="0.3737" style="stop-color:#276295"/>
						<stop  offset="0.5154" style="stop-color:#4579B6"/>
						<stop  offset="0.555" style="stop-color:#4F80C0"/>
						<stop  offset="0.6132" style="stop-color:#3C71AB"/>
						<stop  offset="0.7099" style="stop-color:#225E8F"/>
						<stop  offset="0.8069" style="stop-color:#0F4F7B"/>
						<stop  offset="0.9037" style="stop-color:#04476F"/>
						<stop  offset="1" style="stop-color:#00446B"/>
					</linearGradient>
					<path class="st14" d="M904.2,214.5c-9.1,9.6-16.9,21-20,33.2c7.5,2.1,16.6,4,27.5,5.4c1.6-12.9,4.8-24.1,8.8-33.7
						C914.4,218.1,909,216.4,904.2,214.5z"/>
				</g>
				<g>
					
						<linearGradient id="SVGID_16_" gradientUnits="userSpaceOnUse" x1="287.958" y1="266.9426" x2="604.1541" y2="264.5016" gradientTransform="matrix(1 0 0 1 504 -28)">
						<stop  offset="0" style="stop-color:#00446B"/>
						<stop  offset="0.1098" style="stop-color:#044770"/>
						<stop  offset="0.2373" style="stop-color:#12517E"/>
						<stop  offset="0.3737" style="stop-color:#276295"/>
						<stop  offset="0.5154" style="stop-color:#4579B6"/>
						<stop  offset="0.555" style="stop-color:#4F80C0"/>
						<stop  offset="0.6132" style="stop-color:#3C71AB"/>
						<stop  offset="0.7099" style="stop-color:#225E8F"/>
						<stop  offset="0.8069" style="stop-color:#0F4F7B"/>
						<stop  offset="0.9037" style="stop-color:#04476F"/>
						<stop  offset="1" style="stop-color:#00446B"/>
					</linearGradient>
					<path class="st15" d="M924.9,220.3c-4,9.4-7.3,20.5-8.9,33.3c8.3,0.9,17.7,1.5,28.1,1.7v-33.2
						C937.3,222.1,930.8,221.4,924.9,220.3z"/>
				</g>
				<g>
					
						<linearGradient id="SVGID_17_" gradientUnits="userSpaceOnUse" x1="289.0044" y1="405.5072" x2="605.2695" y2="403.066" gradientTransform="matrix(1 0 0 1 504 -28)">
						<stop  offset="0" style="stop-color:#00446B"/>
						<stop  offset="0.1098" style="stop-color:#044770"/>
						<stop  offset="0.2373" style="stop-color:#12517E"/>
						<stop  offset="0.3737" style="stop-color:#276295"/>
						<stop  offset="0.5154" style="stop-color:#4579B6"/>
						<stop  offset="0.555" style="stop-color:#4F80C0"/>
						<stop  offset="0.6132" style="stop-color:#3C71AB"/>
						<stop  offset="0.7099" style="stop-color:#225E8F"/>
						<stop  offset="0.8069" style="stop-color:#0F4F7B"/>
						<stop  offset="0.9037" style="stop-color:#04476F"/>
						<stop  offset="1" style="stop-color:#00446B"/>
					</linearGradient>
					<path class="st16" d="M903.1,369c4.5,6.3,9.7,12.3,15.4,17.2c5,1.4,10.2,2.5,15.5,3.1c-4.4-7.8-8.3-16.8-11.7-25.6
						C916.2,364.8,909.7,366.6,903.1,369z"/>
				</g>
				<g>
					
						<linearGradient id="SVGID_18_" gradientUnits="userSpaceOnUse" x1="288.4731" y1="334.9487" x2="604.7042" y2="332.5073" gradientTransform="matrix(1 0 0 1 504 -28)">
						<stop  offset="0" style="stop-color:#00446B"/>
						<stop  offset="0.1098" style="stop-color:#044770"/>
						<stop  offset="0.2373" style="stop-color:#12517E"/>
						<stop  offset="0.3737" style="stop-color:#276295"/>
						<stop  offset="0.5154" style="stop-color:#4579B6"/>
						<stop  offset="0.555" style="stop-color:#4F80C0"/>
						<stop  offset="0.6132" style="stop-color:#3C71AB"/>
						<stop  offset="0.7099" style="stop-color:#225E8F"/>
						<stop  offset="0.8069" style="stop-color:#0F4F7B"/>
						<stop  offset="0.9037" style="stop-color:#04476F"/>
						<stop  offset="1" style="stop-color:#00446B"/>
					</linearGradient>
					<path class="st17" d="M913.7,291.4c-0.2,14.8,0.7,24.3,1.3,29.2c8.6-0.8,18.3-1.1,29.3-1v-28.2H913.7z"/>
				</g>
				<g>
					
						<linearGradient id="SVGID_19_" gradientUnits="userSpaceOnUse" x1="288.8267" y1="379.9717" x2="605.0331" y2="377.5305" gradientTransform="matrix(1 0 0 1 504 -28)">
						<stop  offset="0" style="stop-color:#00446B"/>
						<stop  offset="0.1098" style="stop-color:#044770"/>
						<stop  offset="0.2373" style="stop-color:#12517E"/>
						<stop  offset="0.3737" style="stop-color:#276295"/>
						<stop  offset="0.5154" style="stop-color:#4579B6"/>
						<stop  offset="0.555" style="stop-color:#4F80C0"/>
						<stop  offset="0.6132" style="stop-color:#3C71AB"/>
						<stop  offset="0.7099" style="stop-color:#225E8F"/>
						<stop  offset="0.8069" style="stop-color:#0F4F7B"/>
						<stop  offset="0.9037" style="stop-color:#04476F"/>
						<stop  offset="1" style="stop-color:#00446B"/>
					</linearGradient>
					<path class="st18" d="M878.6,331.5c-8.6,2.8-14.7,5.9-19,8.8c7,12.1,16.5,22.5,27.8,30.7c3.1-1.5,6.1-2.8,9.1-4
						C885.5,350.3,879.3,333.6,878.6,331.5z"/>
				</g>
				<g>
					
						<linearGradient id="SVGID_20_" gradientUnits="userSpaceOnUse" x1="289.0483" y1="405.5761" x2="605.1726" y2="403.1358" gradientTransform="matrix(1 0 0 1 504 -28)">
						<stop  offset="0" style="stop-color:#00446B"/>
						<stop  offset="0.1098" style="stop-color:#044770"/>
						<stop  offset="0.2373" style="stop-color:#12517E"/>
						<stop  offset="0.3737" style="stop-color:#276295"/>
						<stop  offset="0.5154" style="stop-color:#4579B6"/>
						<stop  offset="0.555" style="stop-color:#4F80C0"/>
						<stop  offset="0.6132" style="stop-color:#3C71AB"/>
						<stop  offset="0.7099" style="stop-color:#225E8F"/>
						<stop  offset="0.8069" style="stop-color:#0F4F7B"/>
						<stop  offset="0.9037" style="stop-color:#04476F"/>
						<stop  offset="1" style="stop-color:#00446B"/>
					</linearGradient>
					<path class="st19" d="M891.4,373.8c5.4,3.5,11.2,6.6,17.3,9c-3.6-3.8-6.9-8-9.9-12.2C896.4,371.6,893.9,372.7,891.4,373.8z"/>
				</g>
				<g>
					
						<linearGradient id="SVGID_21_" gradientUnits="userSpaceOnUse" x1="289.0469" y1="404.8482" x2="605.1951" y2="402.4074" gradientTransform="matrix(1 0 0 1 504 -28)">
						<stop  offset="0" style="stop-color:#00446B"/>
						<stop  offset="0.1098" style="stop-color:#044770"/>
						<stop  offset="0.2373" style="stop-color:#12517E"/>
						<stop  offset="0.3737" style="stop-color:#276295"/>
						<stop  offset="0.5154" style="stop-color:#4579B6"/>
						<stop  offset="0.555" style="stop-color:#4F80C0"/>
						<stop  offset="0.6132" style="stop-color:#3C71AB"/>
						<stop  offset="0.7099" style="stop-color:#225E8F"/>
						<stop  offset="0.8069" style="stop-color:#0F4F7B"/>
						<stop  offset="0.9037" style="stop-color:#04476F"/>
						<stop  offset="1" style="stop-color:#00446B"/>
					</linearGradient>
					<path class="st20" d="M942.9,389.9v-28.5c-5.1,0.1-10.6,0.5-16.2,1.4c3.6,9.4,7.9,19,12.6,26.9
						C940.5,389.8,941.7,389.9,942.9,389.9z"/>
				</g>
				<g>
					
						<linearGradient id="SVGID_22_" gradientUnits="userSpaceOnUse" x1="289.0283" y1="406.0681" x2="605.243" y2="403.6271" gradientTransform="matrix(1 0 0 1 504 -28)">
						<stop  offset="0" style="stop-color:#00446B"/>
						<stop  offset="0.1098" style="stop-color:#044770"/>
						<stop  offset="0.2373" style="stop-color:#12517E"/>
						<stop  offset="0.3737" style="stop-color:#276295"/>
						<stop  offset="0.5154" style="stop-color:#4579B6"/>
						<stop  offset="0.555" style="stop-color:#4F80C0"/>
						<stop  offset="0.6132" style="stop-color:#3C71AB"/>
						<stop  offset="0.7099" style="stop-color:#225E8F"/>
						<stop  offset="0.8069" style="stop-color:#0F4F7B"/>
						<stop  offset="0.9037" style="stop-color:#04476F"/>
						<stop  offset="1" style="stop-color:#00446B"/>
					</linearGradient>
					<path class="st21" d="M987.5,370.2c-5.2-2.2-11.4-4.4-18.5-6c-3.3,8.6-7.2,17.5-11.5,25.1c5.3-0.6,10.4-1.6,15.3-3
						C978.3,381.7,983.2,376.1,987.5,370.2z"/>
				</g>
				<g>
					
						<linearGradient id="SVGID_23_" gradientUnits="userSpaceOnUse" x1="288.4854" y1="337.4693" x2="604.7383" y2="335.028" gradientTransform="matrix(1 0 0 1 504 -28)">
						<stop  offset="0" style="stop-color:#00446B"/>
						<stop  offset="0.1098" style="stop-color:#044770"/>
						<stop  offset="0.2373" style="stop-color:#12517E"/>
						<stop  offset="0.3737" style="stop-color:#276295"/>
						<stop  offset="0.5154" style="stop-color:#4579B6"/>
						<stop  offset="0.555" style="stop-color:#4F80C0"/>
						<stop  offset="0.6132" style="stop-color:#3C71AB"/>
						<stop  offset="0.7099" style="stop-color:#225E8F"/>
						<stop  offset="0.8069" style="stop-color:#0F4F7B"/>
						<stop  offset="0.9037" style="stop-color:#04476F"/>
						<stop  offset="1" style="stop-color:#00446B"/>
					</linearGradient>
					<path class="st22" d="M909.4,291.4h-30.7c-0.2,17.4,2.4,29.2,4,34.8c7.6-2.2,16.9-4,28-5.1C910,315.8,909.2,306.3,909.4,291.4z
						"/>
				</g>
				<g>
					
						<linearGradient id="SVGID_24_" gradientUnits="userSpaceOnUse" x1="288.957" y1="404.9176" x2="605.2846" y2="402.4755" gradientTransform="matrix(1 0 0 1 504 -28)">
						<stop  offset="0" style="stop-color:#00446B"/>
						<stop  offset="0.1098" style="stop-color:#044770"/>
						<stop  offset="0.2373" style="stop-color:#12517E"/>
						<stop  offset="0.3737" style="stop-color:#276295"/>
						<stop  offset="0.5154" style="stop-color:#4579B6"/>
						<stop  offset="0.555" style="stop-color:#4F80C0"/>
						<stop  offset="0.6132" style="stop-color:#3C71AB"/>
						<stop  offset="0.7099" style="stop-color:#225E8F"/>
						<stop  offset="0.8069" style="stop-color:#0F4F7B"/>
						<stop  offset="0.9037" style="stop-color:#04476F"/>
						<stop  offset="1" style="stop-color:#00446B"/>
					</linearGradient>
					<path class="st23" d="M947.2,361.5V390c1.7,0,3.4-0.1,5.1-0.2c4.6-7.7,8.9-17.2,12.5-26.5C959.3,362.3,953.5,361.6,947.2,361.5
						z"/>
				</g>
				<g>
					
						<linearGradient id="SVGID_25_" gradientUnits="userSpaceOnUse" x1="288.7651" y1="374.1693" x2="605.0201" y2="371.728" gradientTransform="matrix(1 0 0 1 504 -28)">
						<stop  offset="0" style="stop-color:#00446B"/>
						<stop  offset="0.1098" style="stop-color:#044770"/>
						<stop  offset="0.2373" style="stop-color:#12517E"/>
						<stop  offset="0.3737" style="stop-color:#276295"/>
						<stop  offset="0.5154" style="stop-color:#4579B6"/>
						<stop  offset="0.555" style="stop-color:#4F80C0"/>
						<stop  offset="0.6132" style="stop-color:#3C71AB"/>
						<stop  offset="0.7099" style="stop-color:#225E8F"/>
						<stop  offset="0.8069" style="stop-color:#0F4F7B"/>
						<stop  offset="0.9037" style="stop-color:#04476F"/>
						<stop  offset="1" style="stop-color:#00446B"/>
					</linearGradient>
					<path class="st24" d="M920.8,359.5c-6.4-17.3-10.3-32.6-10.6-33.7c0-0.1-0.1-0.2-0.1-0.5c-10.9,1.2-19.9,2.9-27.4,5
						c1.1,2.9,7.3,19.2,17.9,35C907.6,362.7,914.3,360.9,920.8,359.5z"/>
				</g>
				<g>
					
						<linearGradient id="SVGID_26_" gradientUnits="userSpaceOnUse" x1="288.8481" y1="382.8864" x2="605.076" y2="380.4452" gradientTransform="matrix(1 0 0 1 504 -28)">
						<stop  offset="0" style="stop-color:#00446B"/>
						<stop  offset="0.1098" style="stop-color:#044770"/>
						<stop  offset="0.2373" style="stop-color:#12517E"/>
						<stop  offset="0.3737" style="stop-color:#276295"/>
						<stop  offset="0.5154" style="stop-color:#4579B6"/>
						<stop  offset="0.555" style="stop-color:#4F80C0"/>
						<stop  offset="0.6132" style="stop-color:#3C71AB"/>
						<stop  offset="0.7099" style="stop-color:#225E8F"/>
						<stop  offset="0.8069" style="stop-color:#0F4F7B"/>
						<stop  offset="0.9037" style="stop-color:#04476F"/>
						<stop  offset="1" style="stop-color:#00446B"/>
					</linearGradient>
					<path class="st25" d="M994.1,368.5c3.1,1.5,5.8,3,7.9,4.3c11.7-7.9,21.6-18.2,29-30.2c-4-2.7-10.1-6-18.8-9
						C1010.1,339.1,1003.9,354,994.1,368.5z"/>
				</g>
				<g>
					
						<linearGradient id="SVGID_27_" gradientUnits="userSpaceOnUse" x1="289.0381" y1="407.0555" x2="605.255" y2="404.6139" gradientTransform="matrix(1 0 0 1 504 -28)">
						<stop  offset="0" style="stop-color:#00446B"/>
						<stop  offset="0.1098" style="stop-color:#044770"/>
						<stop  offset="0.2373" style="stop-color:#12517E"/>
						<stop  offset="0.3737" style="stop-color:#276295"/>
						<stop  offset="0.5154" style="stop-color:#4579B6"/>
						<stop  offset="0.555" style="stop-color:#4F80C0"/>
						<stop  offset="0.6132" style="stop-color:#3C71AB"/>
						<stop  offset="0.7099" style="stop-color:#225E8F"/>
						<stop  offset="0.8069" style="stop-color:#0F4F7B"/>
						<stop  offset="0.9037" style="stop-color:#04476F"/>
						<stop  offset="1" style="stop-color:#00446B"/>
					</linearGradient>
					<path class="st26" d="M982.6,383c5.4-2.1,10.5-4.7,15.3-7.6c-1.8-1-3.9-2.2-6.3-3.4C988.9,375.9,985.8,379.6,982.6,383z"/>
				</g>
				<g>
					
						<linearGradient id="SVGID_28_" gradientUnits="userSpaceOnUse" x1="287.8535" y1="255.9167" x2="604.109" y2="253.475" gradientTransform="matrix(1 0 0 1 504 -28)">
						<stop  offset="0" style="stop-color:#00446B"/>
						<stop  offset="0.1098" style="stop-color:#044770"/>
						<stop  offset="0.2373" style="stop-color:#12517E"/>
						<stop  offset="0.3737" style="stop-color:#276295"/>
						<stop  offset="0.5154" style="stop-color:#4579B6"/>
						<stop  offset="0.555" style="stop-color:#4F80C0"/>
						<stop  offset="0.6132" style="stop-color:#3C71AB"/>
						<stop  offset="0.7099" style="stop-color:#225E8F"/>
						<stop  offset="0.8069" style="stop-color:#0F4F7B"/>
						<stop  offset="0.9037" style="stop-color:#04476F"/>
						<stop  offset="1" style="stop-color:#00446B"/>
					</linearGradient>
					<path class="st27" d="M899.9,212.7c-3.8-1.7-7-3.3-9.7-4.8c-11.6,8.1-21.4,18.5-28.7,30.5c4.3,2.6,10.4,5.4,18.5,8.1
						C883.3,234,891,222.5,899.9,212.7z"/>
				</g>
				<g>
					
						<linearGradient id="SVGID_29_" gradientUnits="userSpaceOnUse" x1="288.1548" y1="293.2571" x2="604.3673" y2="290.8158" gradientTransform="matrix(1 0 0 1 504 -28)">
						<stop  offset="0" style="stop-color:#00446B"/>
						<stop  offset="0.1098" style="stop-color:#044770"/>
						<stop  offset="0.2373" style="stop-color:#12517E"/>
						<stop  offset="0.3737" style="stop-color:#276295"/>
						<stop  offset="0.5154" style="stop-color:#4579B6"/>
						<stop  offset="0.555" style="stop-color:#4F80C0"/>
						<stop  offset="0.6132" style="stop-color:#3C71AB"/>
						<stop  offset="0.7099" style="stop-color:#225E8F"/>
						<stop  offset="0.8069" style="stop-color:#0F4F7B"/>
						<stop  offset="0.9037" style="stop-color:#04476F"/>
						<stop  offset="1" style="stop-color:#00446B"/>
					</linearGradient>
					<path class="st28" d="M879.1,250.8c-8.7-2.7-15.1-5.7-19.7-8.5c-7.3,13.4-11.6,28.6-12.1,44.8h27
						C874.7,276.7,876.1,264.6,879.1,250.8z"/>
				</g>
				<g>
					
						<linearGradient id="SVGID_30_" gradientUnits="userSpaceOnUse" x1="287.6836" y1="230.386" x2="603.8794" y2="227.9453" gradientTransform="matrix(1 0 0 1 504 -28)">
						<stop  offset="0" style="stop-color:#00446B"/>
						<stop  offset="0.1098" style="stop-color:#044770"/>
						<stop  offset="0.2373" style="stop-color:#12517E"/>
						<stop  offset="0.3737" style="stop-color:#276295"/>
						<stop  offset="0.5154" style="stop-color:#4579B6"/>
						<stop  offset="0.555" style="stop-color:#4F80C0"/>
						<stop  offset="0.6132" style="stop-color:#3C71AB"/>
						<stop  offset="0.7099" style="stop-color:#225E8F"/>
						<stop  offset="0.8069" style="stop-color:#0F4F7B"/>
						<stop  offset="0.9037" style="stop-color:#04476F"/>
						<stop  offset="1" style="stop-color:#00446B"/>
					</linearGradient>
					<path class="st29" d="M921.2,193.5c-9.6,2.6-18.7,6.6-26.9,11.8c2.5,1.3,5.4,2.8,8.8,4.2C909,203.3,915.4,197.9,921.2,193.5z"
						/>
				</g>
				<g>
					
						<linearGradient id="SVGID_31_" gradientUnits="userSpaceOnUse" x1="287.6357" y1="230.5554" x2="603.9143" y2="228.1138" gradientTransform="matrix(1 0 0 1 504 -28)">
						<stop  offset="0" style="stop-color:#00446B"/>
						<stop  offset="0.1098" style="stop-color:#044770"/>
						<stop  offset="0.2373" style="stop-color:#12517E"/>
						<stop  offset="0.3737" style="stop-color:#276295"/>
						<stop  offset="0.5154" style="stop-color:#4579B6"/>
						<stop  offset="0.555" style="stop-color:#4F80C0"/>
						<stop  offset="0.6132" style="stop-color:#3C71AB"/>
						<stop  offset="0.7099" style="stop-color:#225E8F"/>
						<stop  offset="0.8069" style="stop-color:#0F4F7B"/>
						<stop  offset="0.9037" style="stop-color:#04476F"/>
						<stop  offset="1" style="stop-color:#00446B"/>
					</linearGradient>
					<path class="st30" d="M990.5,208.8c3-1.2,6-2.5,9.1-4c-8.2-5.1-17.3-9-26.9-11.5C978.4,197.6,984.6,202.9,990.5,208.8z"/>
				</g>
				<g>
					
						<linearGradient id="SVGID_32_" gradientUnits="userSpaceOnUse" x1="287.6255" y1="231.9657" x2="603.9424" y2="229.5238" gradientTransform="matrix(1 0 0 1 504 -28)">
						<stop  offset="0" style="stop-color:#00446B"/>
						<stop  offset="0.1098" style="stop-color:#044770"/>
						<stop  offset="0.2373" style="stop-color:#12517E"/>
						<stop  offset="0.3737" style="stop-color:#276295"/>
						<stop  offset="0.5154" style="stop-color:#4579B6"/>
						<stop  offset="0.555" style="stop-color:#4F80C0"/>
						<stop  offset="0.6132" style="stop-color:#3C71AB"/>
						<stop  offset="0.7099" style="stop-color:#225E8F"/>
						<stop  offset="0.8069" style="stop-color:#0F4F7B"/>
						<stop  offset="0.9037" style="stop-color:#04476F"/>
						<stop  offset="1" style="stop-color:#00446B"/>
					</linearGradient>
					<path class="st31" d="M956.6,190.5c4.6,5.7,10.1,13.8,14.9,24.3c4.7-1.1,9.5-2.5,14.4-4.2c-8.2-8.1-16.9-14.7-23.6-19.4
						C960.4,190.9,958.5,190.7,956.6,190.5z"/>
				</g>
				<g>
					
						<linearGradient id="SVGID_33_" gradientUnits="userSpaceOnUse" x1="288.7593" y1="376.1016" x2="605.0439" y2="373.6596" gradientTransform="matrix(1 0 0 1 504 -28)">
						<stop  offset="0" style="stop-color:#00446B"/>
						<stop  offset="0.1098" style="stop-color:#044770"/>
						<stop  offset="0.2373" style="stop-color:#12517E"/>
						<stop  offset="0.3737" style="stop-color:#276295"/>
						<stop  offset="0.5154" style="stop-color:#4579B6"/>
						<stop  offset="0.555" style="stop-color:#4F80C0"/>
						<stop  offset="0.6132" style="stop-color:#3C71AB"/>
						<stop  offset="0.7099" style="stop-color:#225E8F"/>
						<stop  offset="0.8069" style="stop-color:#0F4F7B"/>
						<stop  offset="0.9037" style="stop-color:#04476F"/>
						<stop  offset="1" style="stop-color:#00446B"/>
					</linearGradient>
					<path class="st32" d="M990.1,366.7c9.6-14,15.8-28.7,18-34.4c-7.2-2.2-16.1-4.2-26.9-5.7c-0.9,3.5-4.8,17.8-10.6,33.6
						C978.1,361.9,984.6,364.3,990.1,366.7z"/>
				</g>
				<g>
					
						<linearGradient id="SVGID_34_" gradientUnits="userSpaceOnUse" x1="288.7207" y1="370.8722" x2="604.9975" y2="368.4304" gradientTransform="matrix(1 0 0 1 504 -28)">
						<stop  offset="0" style="stop-color:#00446B"/>
						<stop  offset="0.1098" style="stop-color:#044770"/>
						<stop  offset="0.2373" style="stop-color:#12517E"/>
						<stop  offset="0.3737" style="stop-color:#276295"/>
						<stop  offset="0.5154" style="stop-color:#4579B6"/>
						<stop  offset="0.555" style="stop-color:#4F80C0"/>
						<stop  offset="0.6132" style="stop-color:#3C71AB"/>
						<stop  offset="0.7099" style="stop-color:#225E8F"/>
						<stop  offset="0.8069" style="stop-color:#0F4F7B"/>
						<stop  offset="0.9037" style="stop-color:#04476F"/>
						<stop  offset="1" style="stop-color:#00446B"/>
					</linearGradient>
					<path class="st33" d="M966.3,359.2c5.6-15.1,9.5-29,10.6-33.2c-8.7-1.1-18.5-1.8-29.7-2v33.2
						C954,357.3,960.4,358.1,966.3,359.2z"/>
				</g>
				<g>
					
						<linearGradient id="SVGID_35_" gradientUnits="userSpaceOnUse" x1="288.7744" y1="370.3845" x2="604.9382" y2="367.9439" gradientTransform="matrix(1 0 0 1 504 -28)">
						<stop  offset="0" style="stop-color:#00446B"/>
						<stop  offset="0.1098" style="stop-color:#044770"/>
						<stop  offset="0.2373" style="stop-color:#12517E"/>
						<stop  offset="0.3737" style="stop-color:#276295"/>
						<stop  offset="0.5154" style="stop-color:#4579B6"/>
						<stop  offset="0.555" style="stop-color:#4F80C0"/>
						<stop  offset="0.6132" style="stop-color:#3C71AB"/>
						<stop  offset="0.7099" style="stop-color:#225E8F"/>
						<stop  offset="0.8069" style="stop-color:#0F4F7B"/>
						<stop  offset="0.9037" style="stop-color:#04476F"/>
						<stop  offset="1" style="stop-color:#00446B"/>
					</linearGradient>
					<path class="st34" d="M942.9,357.2v-33.3c-10.7-0.1-20.1,0.2-28.5,1c0.3,1.2,4.4,16.7,10.7,33.9
						C931.3,357.7,937.3,357.2,942.9,357.2z"/>
				</g>
				<g>
					
						<linearGradient id="SVGID_36_" gradientUnits="userSpaceOnUse" x1="288.5132" y1="342.3958" x2="604.8091" y2="339.9539" gradientTransform="matrix(1 0 0 1 504 -28)">
						<stop  offset="0" style="stop-color:#00446B"/>
						<stop  offset="0.1098" style="stop-color:#044770"/>
						<stop  offset="0.2373" style="stop-color:#12517E"/>
						<stop  offset="0.3737" style="stop-color:#276295"/>
						<stop  offset="0.5154" style="stop-color:#4579B6"/>
						<stop  offset="0.555" style="stop-color:#4F80C0"/>
						<stop  offset="0.6132" style="stop-color:#3C71AB"/>
						<stop  offset="0.7099" style="stop-color:#225E8F"/>
						<stop  offset="0.8069" style="stop-color:#0F4F7B"/>
						<stop  offset="0.9037" style="stop-color:#04476F"/>
						<stop  offset="1" style="stop-color:#00446B"/>
					</linearGradient>
					<path class="st35" d="M873,291.4h-27c0.2,16.3,4.3,31.6,11.4,45.1c4.6-3,11-6.2,19.8-9.1C875.5,321.6,872.7,309.5,873,291.4z"
						/>
				</g>
			</g>
		</g>
		<g>
			<path class="st36" d="M963.4,442c-0.2,6.7-5.8,12-12.5,11.8c-6.7-0.2-12-5.8-11.8-12.5c0.2-6.7,5.8-12,12.5-11.8
				C958.3,429.7,963.6,435.3,963.4,442z"/>
		</g>
		<g>
			<path class="st36" d="M842,464c-0.2,6.7-5.8,12-12.6,11.8c-6.7-0.2-12-5.8-11.8-12.5c0.2-6.7,5.8-12,12.5-11.8
				C836.9,451.6,842.2,457.3,842,464z"/>
		</g>
		<g>
			<circle class="st37" cx="781" cy="336.5" r="12.2"/>
		</g>
		<g>
			<path class="st37" d="M749.3,362.3c-0.3,10.1-8.7,18-18.8,17.8c-10.1-0.3-18-8.7-17.7-18.8c0.3-10.1,8.7-18,18.8-17.7
				C741.6,343.9,749.6,352.3,749.3,362.3z"/>
		</g>
		<g>
			<path class="st37" d="M723.5,420.7c-0.4,14.2-12.2,25.4-26.4,25c-14.2-0.4-25.3-12.2-24.9-26.4c0.4-14.2,12.2-25.3,26.4-24.9
				C712.7,394.7,723.9,406.5,723.5,420.7z"/>
		</g>
		<g>
			<path class="st37" d="M776.9,497.4c-0.5,18.9-16.3,33.7-35.1,33.2c-18.8-0.5-33.7-16.2-33.1-35.1c0.5-18.8,16.2-33.7,35.1-33.2
				C762.5,462.8,777.4,478.6,776.9,497.4z"/>
		</g>
		<g>
			<path class="st37" d="M1114.3,336.8c0.2,6.7,5.8,12,12.5,11.9c6.7-0.2,12-5.8,11.8-12.5c-0.2-6.7-5.8-12-12.5-11.8
				C1119.4,324.5,1114.1,330.1,1114.3,336.8z"/>
		</g>
		<g>
			<path class="st37" d="M1158.2,362.3c0.3,10.1,8.7,18,18.8,17.8c10.1-0.3,18-8.7,17.7-18.8c-0.3-10.1-8.7-18-18.8-17.7
				C1165.9,343.9,1157.9,352.3,1158.2,362.3z"/>
		</g>
		<g>
			<path class="st37" d="M1184.1,420.7c0.4,14.2,12.2,25.4,26.4,25c14.2-0.4,25.4-12.2,24.9-26.4c-0.4-14.2-12.2-25.3-26.4-24.9
				C1194.8,394.7,1183.7,406.5,1184.1,420.7z"/>
		</g>
		<g>
			<path class="st37" d="M1130.7,497.4c0.5,18.9,16.2,33.7,35.1,33.2c18.8-0.5,33.7-16.2,33.1-35.1c-0.5-18.8-16.3-33.7-35.1-33.2
				C1145,462.8,1130.1,478.6,1130.7,497.4z"/>
		</g>
		<g>
			<path class="st36" d="M1068.5,463.3c-0.2,6.7-5.8,12-12.5,11.8c-6.7-0.2-12-5.8-11.8-12.5c0.2-6.7,5.8-12,12.5-11.8
				C1063.3,450.9,1068.7,456.5,1068.5,463.3z"/>
		</g>
		<g>
			<path class="st36" d="M1017.7,418.9c0,0-45.6,30.3-71.3,88c0,0-38.1-60.5-56.4-73.4c0,0,67.1,122.3,12.4,202.4
				c0,0,52.6-41.3,62.8-84.7c0,0,17.7,54.6,60.1,93.1C1025.2,644.4,957.6,536.3,1017.7,418.9z"/>
		</g>
		<g>
			<path class="st36" d="M1032.3,445c0,0-56.4,95.9,11.8,186.2C1044.1,631.2,1003.1,559.2,1032.3,445z"/>
		</g>
		<g>
			<path class="st36" d="M1041.6,561.7c0,0,2.8,39.4,28.4,49L1041.6,561.7z"/>
		</g>
		<g>
			<path class="st36" d="M849.2,437.3c0,0,101.2,72.3,22.4,181.5C871.5,618.9,917.8,523.8,849.2,437.3z"/>
		</g>
		<g>
			<path class="st36" d="M872.2,551.4c0,0,6.9,32.6-36.9,66.4C835.2,617.8,864.6,585.1,872.2,551.4z"/>
		</g>
		<g>
			<path class="st38" d="M876.6,408.5c-3.8-2.3-7.5-4.7-11-7.3l2.6-3.5c3.4,2.5,7.1,4.9,10.7,7.1L876.6,408.5z M1025.8,404.6
				l-2.4-3.6c3.5-2.4,7-4.9,10.3-7.6l2.8,3.4C1033,399.5,1029.4,402.1,1025.8,404.6z M858.6,395.7c-3.4-2.8-6.7-5.8-9.8-9l3.1-3.1
				c3,3,6.2,5.9,9.5,8.7L858.6,395.7z M1043.1,390.9l-3-3.2c3.1-2.9,6.2-6,9-9.2l3.3,2.9C1049.4,384.7,1046.3,387.9,1043.1,390.9z
				 M842.8,380.3c-2.9-3.3-5.7-6.8-8.2-10.4l3.5-2.5c2.5,3.5,5.2,6.9,8,10.1L842.8,380.3z M1058,374.6l-3.4-2.7
				c2.6-3.3,5.1-6.9,7.4-10.5l3.7,2.4C1063.3,367.6,1060.8,371.2,1058,374.6z M829.7,362.5c-2.4-3.7-4.5-7.6-6.5-11.5l3.9-2
				c1.9,3.8,4,7.6,6.3,11.2L829.7,362.5z M1070.3,356.2l-3.8-2.1c2.1-3.8,4-7.6,5.7-11.5l4,1.7
				C1074.4,348.4,1072.4,352.4,1070.3,356.2z M819.4,343c-1.7-4-3.3-8.2-4.6-12.4l4.2-1.3c1.3,4.1,2.8,8.1,4.5,12.1L819.4,343z
				 M1079.5,336.2l-4.1-1.5c1.5-4,2.8-8.1,3.8-12.3l4.2,1.1C1082.3,327.8,1080.9,332,1079.5,336.2z M812.4,322
				c-1.1-4.3-1.9-8.7-2.6-13l4.3-0.6c0.6,4.2,1.5,8.4,2.5,12.6L812.4,322z M1085.3,314.9l-4.3-0.8c0.8-4.2,1.4-8.5,1.8-12.7l4.4,0.4
				C1086.8,306.1,1086.2,310.5,1085.3,314.9z M808.9,300.2c-0.3-3.9-0.5-7.9-0.5-11.8l0-1.4l4.4,0l0,1.4c0,3.8,0.2,7.7,0.5,11.5
				L808.9,300.2z M1087.8,292.9l-4.3-0.1c0-1.4,0.1-2.9,0.1-4.4c0-2.9-0.1-5.7-0.3-8.5l4.4-0.3c0.2,2.9,0.3,5.8,0.3,8.8
				C1087.8,289.9,1087.8,291.4,1087.8,292.9z M813.1,278.5l-4.3-0.3c0.3-4.4,0.9-8.8,1.6-13.2l4.3,0.7
				C813.9,269.9,813.4,274.2,813.1,278.5z M1082.4,271.4c-0.5-4.2-1.3-8.5-2.2-12.7l4.3-0.9c1,4.3,1.7,8.7,2.3,13.1L1082.4,271.4z
				 M816.3,257.3l-4.3-1c1-4.3,2.2-8.6,3.7-12.7l4.1,1.4C818.5,249,817.3,253.2,816.3,257.3z M1078.1,250.4
				c-1.2-4.1-2.6-8.2-4.2-12.1l4-1.6c1.6,4.1,3.1,8.3,4.3,12.5L1078.1,250.4z M822.8,236.9l-4-1.7c1.7-4.1,3.6-8.1,5.6-12l3.8,2
				C826.3,229.1,824.5,233,822.8,236.9z M1070.5,230.4c-1.8-3.9-3.9-7.7-6.1-11.3l3.8-2.2c2.3,3.8,4.3,7.7,6.2,11.7L1070.5,230.4z
				 M832.5,217.9l-3.7-2.3c2.3-3.7,4.8-7.4,7.4-11l3.5,2.6C837.2,210.6,834.7,214.2,832.5,217.9z M1059.8,211.9
				c-2.4-3.5-5-7-7.8-10.2l3.3-2.8c2.8,3.4,5.5,6.9,8,10.6L1059.8,211.9z M845.1,200.5l-3.3-2.8c2.9-3.4,5.9-6.6,9.1-9.7l3,3.1
				C850.8,194.1,847.9,197.3,845.1,200.5z M1046.4,195.3c-3-3.1-6.1-6.1-9.3-8.9l2.9-3.3c3.3,2.9,6.5,6,9.6,9.2L1046.4,195.3z
				 M860.2,185.4l-2.8-3.3c3.3-2.9,6.9-5.6,10.5-8.1l2.5,3.6C866.9,180,863.5,182.6,860.2,185.4z M1030.5,180.9
				c-3.4-2.6-6.9-5.1-10.5-7.3l2.3-3.7c3.7,2.3,7.4,4.9,10.9,7.6L1030.5,180.9z M877.5,172.8l-2.3-3.7c3.8-2.3,7.7-4.4,11.6-6.4
				l1.9,3.9C885,168.5,881.2,170.6,877.5,172.8z M1012.5,169.3c-3.8-2-7.6-3.9-11.6-5.6l1.7-4c4.1,1.7,8.1,3.7,12,5.7L1012.5,169.3z
				 M896.6,163.1l-1.7-4c4.1-1.7,8.3-3.2,12.5-4.5l1.3,4.2C904.6,160.1,900.6,161.5,896.6,163.1z M993,160.6
				c-4-1.4-8.2-2.6-12.3-3.7l1.1-4.2c4.3,1.1,8.5,2.3,12.7,3.8L993,160.6z M917,156.6l-1-4.2c4.3-1,8.7-1.8,13-2.4l0.6,4.3
				C925.4,154.8,921.1,155.6,917,156.6z M972.3,155.2c-4.2-0.8-8.5-1.3-12.7-1.7l0.4-4.3c4.4,0.4,8.8,0.9,13.1,1.7L972.3,155.2z
				 M938.1,153.4l-0.3-4.3c4.4-0.3,8.9-0.5,13.3-0.4L951,153C946.7,152.9,942.3,153.1,938.1,153.4z"/>
		</g>
	</g>
</g>
<g id="texto">
	<g id="XMLID_65_">
		<g id="XMLID_66_">
			<rect id="XMLID_67_" x="1300.3" y="417.6" class="st39" width="1111.4" height="3.8"/>
		</g>
		<g id="XMLID_68_">
			<rect id="XMLID_69_" x="1297.2" y="414.5" class="st39" width="1117.6" height="10.1"/>
		</g>
	</g>
	<path id="XMLID_213_" class="st40" d="M1411.2,387.9c-0.9,0-1.6-0.2-2.1-0.8c-0.5-0.5-0.8-1.2-0.8-2.1v-58.7c0-0.9,0.3-1.6,0.8-2.1
		c0.5-0.5,1.2-0.8,2.1-0.8h31.3c0.9,0,1.6,0.2,2.1,0.8c0.5,0.5,0.8,1.2,0.8,2.1v2.8c0,0.9-0.3,1.6-0.8,2.1c-0.5,0.5-1.2,0.8-2.1,0.8
		h-24.2c-0.6,0-1,0.3-1,0.9V350c0,0.6,0.3,1,1,1h22.3c0.9,0,1.6,0.2,2.1,0.7c0.5,0.5,0.7,1.2,0.7,2.1v2.8c0,0.9-0.2,1.6-0.7,2.1
		c-0.5,0.5-1.2,0.7-2.1,0.7h-22.3c-0.6,0-1,0.3-1,1v18c0,0.6,0.3,1,1,1h26c0.9,0,1.6,0.3,2.1,0.8c0.5,0.5,0.7,1.2,0.7,2.1v2.8
		c0,0.9-0.3,1.6-0.7,2.1c-0.5,0.5-1.2,0.8-2.1,0.8H1411.2z"/>
	<path id="XMLID_215_" class="st40" d="M1556.2,387.9c-0.9,0-1.6-0.2-2.1-0.8c-0.5-0.5-0.8-1.2-0.8-2.1v-58.7c0-0.9,0.3-1.6,0.8-2.1
		c0.5-0.5,1.2-0.8,2.1-0.8h3.3c0.9,0,1.6,0.2,2.1,0.8c0.5,0.5,0.7,1.2,0.7,2.1v52.1c0,0.6,0.3,1,1,1h25.9c0.9,0,1.6,0.3,2.1,0.8
		c0.5,0.5,0.8,1.2,0.8,2.1v2.8c0,0.9-0.3,1.6-0.8,2.1c-0.5,0.5-1.2,0.8-2.1,0.8H1556.2z"/>
	<path id="XMLID_217_" class="st40" d="M1737.6,387.9c-0.6,0.5-1.3,0.7-2.1,0.7c-0.8-0.1-1.5-0.3-2.2-0.7l-27.6-16.1
		c-0.5-0.2-0.9-0.2-1.2,0c-0.4,0.3-0.6,0.6-0.7,1l-3.9,12.9c-0.4,1.5-1.5,2.3-3.2,2.3h-4.6c-1.8,0-2.5-0.9-2-2.7l19-59.3
		c0.3-1,0.7-1.7,1.3-2c0.5-0.3,1.2-0.5,2.1-0.5h6.6c0.9,0,1.6,0.2,2.1,0.5c0.5,0.3,0.9,1,1.3,2l18.1,56.7c0.5,1.5,0.2,2.6-0.7,3.4
		L1737.6,387.9z M1716.6,335.5c-0.2-0.7-0.5-1-1-1c-0.4,0-0.7,0.3-0.9,1l-7.5,25c-0.3,0.8-0.3,1.4-0.1,1.8c0.2,0.4,0.5,0.7,0.9,1
		l17.8,10.4c0.7,0.4,1.2,0.5,1.5,0.1c0.3-0.4,0.4-0.8,0.3-1.2L1716.6,335.5z"/>
	<path id="XMLID_220_" class="st40" d="M1854.1,387.9c-0.9,0-1.6-0.2-2.1-0.8c-0.5-0.5-0.8-1.2-0.8-2.1V333c0-0.6-0.3-0.9-1-0.9
		h-14.2c-0.9,0-1.6-0.3-2.1-0.8c-0.5-0.5-0.8-1.2-0.8-2.1v-2.8c0-0.9,0.3-1.6,0.8-2.1c0.5-0.5,1.2-0.8,2.1-0.8h39.3
		c0.9,0,1.6,0.2,2.1,0.8c0.5,0.5,0.8,1.2,0.8,2.1v2.8c0,0.9-0.3,1.6-0.8,2.1c-0.5,0.5-1.2,0.8-2.1,0.8h-14.2c-0.6,0-0.9,0.3-0.9,0.9
		v52.1c0,0.9-0.3,1.6-0.8,2.1c-0.5,0.5-1.2,0.8-2.1,0.8H1854.1z"/>
	<path id="XMLID_222_" class="st40" d="M1984.4,387.9c-0.9,0-1.6-0.2-2.1-0.8c-0.5-0.5-0.7-1.2-0.7-2.1v-58.7c0-0.9,0.3-1.6,0.7-2.1
		c0.5-0.5,1.2-0.8,2.1-0.8h3.3c0.9,0,1.6,0.2,2.1,0.8c0.5,0.5,0.8,1.2,0.8,2.1v52.1c0,0.6,0.3,1,0.9,1h25.9c0.9,0,1.6,0.3,2.1,0.8
		c0.5,0.5,0.8,1.2,0.8,2.1v2.8c0,0.9-0.3,1.6-0.8,2.1c-0.5,0.5-1.2,0.8-2.1,0.8H1984.4z"/>
	<path id="XMLID_224_" class="st40" d="M2165.8,387.9c-0.6,0.5-1.3,0.7-2.1,0.7c-0.8-0.1-1.5-0.3-2.2-0.7l-27.6-16.1
		c-0.5-0.2-0.8-0.2-1.2,0c-0.3,0.3-0.6,0.6-0.7,1l-3.9,12.9c-0.5,1.5-1.6,2.3-3.2,2.3h-4.7c-1.8,0-2.5-0.9-2-2.7l19-59.3
		c0.3-1,0.7-1.7,1.3-2c0.5-0.3,1.3-0.5,2.1-0.5h6.6c0.9,0,1.6,0.2,2.1,0.5c0.5,0.3,1,1,1.3,2l18.1,56.7c0.4,1.5,0.2,2.6-0.8,3.4
		L2165.8,387.9z M2144.9,335.5c-0.2-0.7-0.5-1-1-1c-0.4,0-0.7,0.3-0.9,1l-7.5,25c-0.3,0.8-0.3,1.4-0.1,1.8c0.2,0.4,0.5,0.7,1,1
		l17.8,10.4c0.7,0.4,1.2,0.5,1.5,0.1c0.3-0.4,0.4-0.8,0.3-1.2L2144.9,335.5z"/>
	<path id="XMLID_227_" class="st40" d="M2274,375.9c0.6-0.6,1.3-0.9,2-0.9c0.7,0.1,1.4,0.3,1.9,0.9c0.5,0.4,1.1,0.9,1.7,1.5
		c0.6,0.6,1.4,1,2.2,1.5c0.8,0.4,1.8,0.8,2.8,1.1c1.1,0.3,2.3,0.4,3.7,0.4c3,0,5.5-0.8,7.5-2.5c2-1.7,2.9-3.8,2.9-6.3
		c0-2.8-0.9-5.1-2.6-6.8c-1.7-1.7-4.5-3.5-8.3-5.3c-2.4-1.2-4.6-2.3-6.5-3.6c-1.9-1.2-3.6-2.7-5-4.2c-1.4-1.6-2.5-3.4-3.2-5.4
		c-0.7-2-1.1-4.3-1.1-6.9c0-2.2,0.4-4.2,1.2-6.3s2-3.8,3.6-5.3c1.6-1.5,3.5-2.8,5.7-3.7c2.2-1,4.8-1.4,7.5-1.4
		c3.6,0,6.7,0.7,9.3,2.1c2.6,1.4,4.6,2.9,6.1,4.4c1.3,1.3,1.3,2.6,0,4l-2.2,2.3c-0.6,0.6-1.2,1-1.8,1c-0.6,0-1.2-0.3-2-1
		c-0.8-0.7-2.1-1.6-3.8-2.6c-1.7-1-3.5-1.5-5.6-1.5c-1.4,0-2.7,0.2-3.8,0.7c-1.1,0.5-2.2,1.1-3,1.9c-0.9,0.8-1.5,1.6-2,2.6
		c-0.5,1-0.7,2-0.7,3.1c0,1.4,0.2,2.6,0.6,3.7c0.4,1.1,1,2.1,1.9,3c0.9,0.9,2,1.8,3.3,2.6c1.4,0.8,3,1.6,5,2.5
		c2.6,1.1,4.9,2.3,6.9,3.6c2,1.3,3.7,2.7,5.1,4.2c1.4,1.5,2.5,3.3,3.2,5.3c0.7,2,1.1,4.3,1.1,6.9c0,2.4-0.5,4.7-1.5,6.8
		c-1,2.2-2.4,4-4.2,5.6c-1.8,1.6-3.8,2.9-6.2,3.9c-2.4,1-4.9,1.5-7.5,1.5c-4.3,0-7.7-0.6-10.1-1.9c-2.4-1.3-4.6-3-6.4-5
		c-0.5-0.5-0.8-1.1-0.9-1.9c-0.1-0.7,0.2-1.5,0.9-2.1L2274,375.9z"/>
	<g id="XMLID_354_">
		<path id="XMLID_355_" class="st41" d="M1685.9,494.7c-0.9,0-1.6-0.5-2-1.4l-6.3-13.6c-0.2-0.5-0.6-0.8-1.1-0.8h-5.1
			c-0.4,0-0.5,0.2-0.5,0.5v13.7c0,0.5-0.1,0.9-0.4,1.2c-0.3,0.3-0.7,0.4-1.2,0.4h-1.9c-0.5,0-0.9-0.1-1.2-0.4
			c-0.3-0.3-0.4-0.7-0.4-1.2v-33.2c0-0.5,0.1-0.9,0.4-1.2c0.3-0.3,0.7-0.4,1.2-0.4h11c1.4,0,2.8,0.3,4,0.8c1.3,0.5,2.3,1.2,3.2,2.1
			c0.9,0.9,1.6,2,2.1,3.2c0.5,1.3,0.8,2.6,0.8,4c0,2-0.5,3.8-1.5,5.4c-1,1.6-2.2,2.8-3.7,3.6c-0.6,0.3-0.7,0.8-0.4,1.6l6.4,13.8
			c0.3,0.5,0.3,1,0.1,1.4c-0.2,0.4-0.6,0.6-1.1,0.6H1685.9z M1678,474.1c0.7,0,1.4-0.1,2.1-0.4c0.7-0.3,1.2-0.6,1.7-1.2
			c0.5-0.5,0.9-1.1,1.2-1.8c0.3-0.7,0.5-1.5,0.5-2.3s-0.2-1.6-0.5-2.2c-0.3-0.7-0.7-1.2-1.2-1.7c-0.5-0.5-1.1-0.8-1.7-1.1
			c-0.7-0.2-1.3-0.4-2.1-0.4h-6.6c-0.4,0-0.5,0.2-0.5,0.5v9.9c0,0.4,0.2,0.5,0.5,0.5H1678z"/>
		<path id="XMLID_358_" class="st41" d="M1711.6,489.5c0.3,0.3,0.5,0.7,0.5,1.1c0,0.4-0.2,0.8-0.5,1.1c-0.7,0.9-1.8,1.7-3.2,2.5
			c-1.4,0.8-3.1,1.1-5,1.1c-1.5,0-2.8-0.2-4-0.7c-1.2-0.5-2.2-1.2-3.1-2c-0.9-0.9-1.5-1.9-2-3s-0.7-2.4-0.7-3.6v-6.3
			c0-1.3,0.2-2.5,0.6-3.7c0.4-1.2,1-2.2,1.8-3c0.8-0.9,1.8-1.5,2.9-2c1.2-0.5,2.5-0.8,4-0.8c1.5,0,2.8,0.2,4,0.8
			c1.2,0.5,2.2,1.2,3,2c0.8,0.9,1.5,1.9,1.9,3c0.4,1.2,0.7,2.4,0.7,3.7v3.2c0,0.5-0.1,0.9-0.4,1.2c-0.3,0.3-0.7,0.4-1.2,0.4H1699
			c-0.4,0-0.5,0.2-0.5,0.5v1c0,1.4,0.4,2.5,1.2,3.4c0.8,0.9,2.1,1.4,3.8,1.4c1.4,0,2.4-0.2,3.2-0.7c0.8-0.5,1.3-0.9,1.7-1.4
			c0.4-0.4,0.8-0.6,1.2-0.6c0.4,0,0.8,0.2,1.1,0.5L1711.6,489.5z M1707.9,479.6c0-1.4-0.4-2.5-1.1-3.5s-2-1.4-3.7-1.4
			c-1.7,0-2.9,0.5-3.5,1.4c-0.7,1-1,2.1-1,3.5v0.3c0,0.4,0.2,0.5,0.5,0.5h8.3c0.4,0,0.5-0.2,0.5-0.5V479.6z"/>
		<path id="XMLID_361_" class="st41" d="M1727.4,494.7c-1.4,0-2.7-0.2-3.8-0.7c-1.2-0.5-2.2-1.1-3-1.9c-0.8-0.8-1.5-1.8-1.9-2.9
			c-0.4-1.1-0.7-2.3-0.7-3.6v-5.9c0-1.3,0.2-2.5,0.7-3.6c0.5-1.1,1.1-2.1,1.9-2.9c0.8-0.8,1.8-1.4,2.9-1.9c1.1-0.5,2.3-0.7,3.7-0.7
			h5.3c0.4,0,0.5-0.2,0.5-0.5v-10.2c0-0.5,0.1-0.9,0.4-1.2c0.3-0.3,0.7-0.4,1.2-0.4h1.6c0.5,0,0.9,0.1,1.2,0.4
			c0.3,0.3,0.4,0.7,0.4,1.2v33.2c0,0.5-0.1,0.9-0.4,1.2c-0.3,0.3-0.7,0.4-1.2,0.4H1727.4z M1733.1,475.7c0-0.4-0.2-0.5-0.5-0.5h-5.1
			c-1.4,0-2.5,0.4-3.3,1.3c-0.8,0.8-1.3,1.9-1.3,3.3v5.9c0,1.4,0.4,2.5,1.3,3.3c0.9,0.8,2,1.3,3.2,1.3h5.1c0.4,0,0.5-0.2,0.5-0.5
			V475.7z"/>
		<path id="XMLID_364_" class="st41" d="M1761.7,489.5c0.3,0.3,0.5,0.7,0.5,1.1c0,0.4-0.2,0.8-0.5,1.1c-0.7,0.9-1.8,1.7-3.2,2.5
			s-3.1,1.1-5,1.1c-1.5,0-2.8-0.2-4-0.7c-1.2-0.5-2.2-1.2-3.1-2c-0.9-0.9-1.5-1.9-2-3c-0.5-1.1-0.7-2.4-0.7-3.6v-6.3
			c0-1.3,0.2-2.5,0.6-3.7c0.4-1.2,1-2.2,1.8-3c0.8-0.9,1.8-1.5,2.9-2c1.2-0.5,2.5-0.8,4-0.8c1.5,0,2.8,0.2,4,0.8
			c1.2,0.5,2.2,1.2,3,2c0.8,0.9,1.5,1.9,1.9,3c0.4,1.2,0.7,2.4,0.7,3.7v3.2c0,0.5-0.1,0.9-0.4,1.2c-0.3,0.3-0.7,0.4-1.2,0.4h-12.1
			c-0.4,0-0.5,0.2-0.5,0.5v1c0,1.4,0.4,2.5,1.2,3.4c0.8,0.9,2.1,1.4,3.8,1.4c1.4,0,2.4-0.2,3.2-0.7c0.8-0.5,1.3-0.9,1.7-1.4
			c0.4-0.4,0.8-0.6,1.2-0.6c0.4,0,0.8,0.2,1.1,0.5L1761.7,489.5z M1758,479.6c0-1.4-0.4-2.5-1.1-3.5s-2-1.4-3.7-1.4
			c-1.7,0-2.9,0.5-3.5,1.4c-0.7,1-1,2.1-1,3.5v0.3c0,0.4,0.2,0.5,0.5,0.5h8.3c0.4,0,0.5-0.2,0.5-0.5V479.6z"/>
		<path id="XMLID_367_" class="st41" d="M1768.9,489.4c0.6-0.7,1.3-0.7,2.2,0.1c0.4,0.3,0.9,0.6,1.4,0.9c0.6,0.3,1.2,0.4,2,0.4
			c1,0,1.8-0.2,2.4-0.6c0.6-0.4,1-1,1-1.7c0-0.7-0.3-1.3-0.8-1.8c-0.6-0.5-1.6-1.1-3.1-1.9c-1-0.5-1.8-0.9-2.6-1.4
			c-0.7-0.5-1.4-1-1.9-1.6c-0.5-0.6-0.9-1.2-1.2-2c-0.3-0.7-0.4-1.6-0.4-2.5c0-1,0.2-1.9,0.5-2.7c0.4-0.9,0.9-1.6,1.5-2.3
			c0.7-0.6,1.5-1.2,2.4-1.5c0.9-0.4,2-0.6,3.2-0.6c1.4,0,2.7,0.3,3.8,0.8c1.1,0.5,1.9,1.1,2.4,1.6c0.3,0.4,0.4,0.7,0.5,1.2
			s-0.1,0.8-0.5,1.1l-1,1c-0.3,0.3-0.7,0.5-1,0.6c-0.3,0.1-0.7,0-1-0.4c-1-0.9-2-1.3-3.2-1.3c-1,0-1.8,0.2-2.3,0.7
			c-0.5,0.5-0.7,1.1-0.7,1.8c0,0.7,0.3,1.3,1,1.8c0.7,0.5,1.5,1,2.6,1.4c1,0.4,1.9,0.9,2.7,1.4c0.8,0.5,1.5,1,2.1,1.6
			c0.6,0.6,1,1.3,1.3,2c0.3,0.7,0.5,1.6,0.5,2.5c0,1.2-0.2,2.2-0.7,3.1c-0.5,0.9-1.1,1.7-1.8,2.3c-0.8,0.6-1.6,1.1-2.6,1.4
			c-1,0.3-2,0.5-3,0.5c-1.6,0-3-0.2-4.1-0.7c-1.1-0.4-1.9-1-2.6-1.8c-0.3-0.3-0.4-0.7-0.5-1.1c0-0.4,0.1-0.8,0.5-1.1L1768.9,489.4z"
			/>
		<path id="XMLID_369_" class="st41" d="M1827.4,483.2c0,1.8-0.3,3.5-0.9,5c-0.6,1.5-1.5,2.8-2.5,3.8c-1.1,1.1-2.4,1.9-3.9,2.4
			c-1.5,0.6-3.2,0.9-5,0.9c-1.8,0-3.4-0.3-4.8-0.9c-1.5-0.6-2.7-1.5-3.8-2.6c-1.1-1.1-1.9-2.5-2.5-4.1c-0.6-1.6-0.9-3.3-0.9-5.2
			v-11.8c0-1.9,0.3-3.6,0.9-5.2c0.6-1.6,1.5-2.9,2.6-4.1c1.1-1.1,2.4-2,3.9-2.7c1.5-0.6,3.1-1,4.9-1c1.2,0,2.3,0.1,3.2,0.3
			c1,0.2,1.8,0.5,2.6,0.9c0.8,0.4,1.5,0.8,2.1,1.2c0.6,0.4,1.1,0.9,1.5,1.3c0.8,0.8,0.8,1.5,0,2.2l-1.2,1.2c-0.4,0.4-0.7,0.5-1,0.6
			c-0.3,0-0.7-0.2-1.1-0.6c-0.5-0.4-1.2-0.9-2.1-1.5c-0.9-0.6-2.2-0.9-3.9-0.9c-1.1,0-2.2,0.2-3,0.6c-0.9,0.4-1.6,1-2.2,1.7
			c-0.6,0.7-1.1,1.6-1.4,2.6c-0.3,1-0.5,2-0.5,3.1v11.8c0,2.4,0.6,4.3,1.8,5.8c1.2,1.5,2.9,2.2,5.1,2.2c2.4,0,4.2-0.7,5.5-2
			c1.2-1.3,1.8-3.1,1.8-5.2v-0.4c0-0.3,0-0.5-0.1-0.6c-0.1-0.1-0.2-0.2-0.4-0.3l-9.3-5.2c-0.4-0.2-0.7-0.6-0.8-1
			c-0.1-0.4-0.1-0.8,0.2-1.2l0.8-1.4c0.2-0.4,0.5-0.7,0.9-0.8c0.4-0.1,0.8-0.1,1.2,0.2l11.4,6.5c0.5,0.3,0.8,0.6,0.9,0.8
			c0.1,0.3,0.2,0.6,0.2,1.2V483.2z"/>
		<path id="XMLID_371_" class="st41" d="M1849.9,489.5c0.3,0.3,0.5,0.7,0.5,1.1c0,0.4-0.2,0.8-0.5,1.1c-0.7,0.9-1.8,1.7-3.2,2.5
			s-3.1,1.1-5,1.1c-1.5,0-2.8-0.2-4-0.7c-1.2-0.5-2.2-1.2-3.1-2c-0.9-0.9-1.5-1.9-2-3c-0.5-1.1-0.7-2.4-0.7-3.6v-6.3
			c0-1.3,0.2-2.5,0.6-3.7c0.4-1.2,1-2.2,1.8-3c0.8-0.9,1.8-1.5,2.9-2c1.2-0.5,2.5-0.8,4-0.8c1.5,0,2.8,0.2,4,0.8
			c1.2,0.5,2.2,1.2,3,2c0.8,0.9,1.5,1.9,1.9,3s0.7,2.4,0.7,3.7v3.2c0,0.5-0.1,0.9-0.4,1.2c-0.3,0.3-0.7,0.4-1.2,0.4h-12.1
			c-0.4,0-0.5,0.2-0.5,0.5v1c0,1.4,0.4,2.5,1.2,3.4c0.8,0.9,2.1,1.4,3.8,1.4c1.4,0,2.4-0.2,3.2-0.7c0.8-0.5,1.3-0.9,1.7-1.4
			c0.4-0.4,0.8-0.6,1.2-0.6c0.4,0,0.8,0.2,1.1,0.5L1849.9,489.5z M1846.1,479.6c0-1.4-0.4-2.5-1.1-3.5s-2-1.4-3.7-1.4
			c-1.7,0-2.9,0.5-3.5,1.4c-0.7,1-1,2.1-1,3.5v0.3c0,0.4,0.2,0.5,0.5,0.5h8.3c0.4,0,0.5-0.2,0.5-0.5V479.6z"/>
		<path id="XMLID_374_" class="st41" d="M1868.3,495.3c-1.8,0-3.4-0.3-4.9-1c-1.5-0.7-2.8-1.6-4-2.7c-1.1-1.1-2-2.5-2.7-4
			c-0.7-1.5-1-3.2-1-4.9c0-1.7,0.3-3.4,1-4.9c0.7-1.5,1.6-2.8,2.7-4c1.1-1.1,2.5-2,4-2.7c1.5-0.7,3.2-1,4.9-1s3.4,0.3,4.9,1
			c1.5,0.7,2.8,1.6,4,2.7c1.1,1.1,2,2.5,2.7,4c0.7,1.5,1,3.2,1,4.9c0,1.8-0.3,3.4-1,4.9c-0.7,1.5-1.6,2.8-2.7,4
			c-1.1,1.1-2.5,2-4,2.7C1871.7,494.9,1870.1,495.3,1868.3,495.3z M1868.3,490.7c1.1,0,2.1-0.2,3.1-0.6c0.9-0.4,1.8-1,2.5-1.7
			c0.7-0.7,1.2-1.6,1.6-2.5c0.4-1,0.6-2,0.6-3.1s-0.2-2.1-0.6-3.1c-0.4-1-0.9-1.8-1.6-2.5c-0.7-0.7-1.5-1.3-2.5-1.7
			c-0.9-0.4-2-0.6-3.1-0.6s-2.1,0.2-3.1,0.6c-0.9,0.4-1.8,1-2.5,1.7c-0.7,0.7-1.2,1.6-1.6,2.5c-0.4,1-0.6,2-0.6,3.1s0.2,2.2,0.6,3.1
			s0.9,1.8,1.6,2.5c0.7,0.7,1.5,1.3,2.5,1.7C1866.2,490.5,1867.2,490.7,1868.3,490.7z"/>
		<path id="XMLID_377_" class="st41" d="M1898.1,503.9c-0.6-0.8-0.5-1.5,0.4-2.2c0.5-0.3,0.9-0.7,1.2-1.2c0.3-0.5,0.5-1.1,0.5-2
			c0-1.1-0.4-2.1-1.3-2.8c-0.9-0.7-2-1-3.3-1h-9.2c-0.5,0-0.9-0.1-1.2-0.4c-0.3-0.3-0.4-0.7-0.4-1.2v-1.3c0-0.8,0.3-1.6,0.9-2.4
			l2.5-3.5c0.2-0.3,0.2-0.6,0.2-0.9c-0.1-0.3-0.2-0.5-0.3-0.7c-0.5-0.7-1-1.5-1.3-2.4c-0.3-0.9-0.5-1.8-0.5-2.7
			c0-1.2,0.3-2.4,0.8-3.5c0.5-1.1,1.2-2.1,2.1-2.9c0.9-0.8,1.8-1.5,3-2c1.1-0.5,2.3-0.7,3.6-0.7c0.4,0,0.7,0,1.1,0.1
			s0.8,0.1,1.3,0.3c0.5,0.1,0.9,0.2,1.1,0.1c0.2-0.1,0.4-0.3,0.6-0.5l1.7-2.3c0.3-0.4,0.6-0.6,1-0.7c0.4-0.1,0.8,0.1,1.2,0.3
			l1.1,0.8c0.4,0.3,0.6,0.6,0.7,1c0.1,0.4-0.1,0.8-0.3,1.2l-1.7,2.3c-0.2,0.3-0.2,0.6-0.1,0.9c0.1,0.3,0.3,0.6,0.4,0.9
			c0.9,1.5,1.3,3,1.3,4.7c0,1.3-0.3,2.4-0.8,3.5c-0.5,1.1-1.2,2.1-2.1,2.9c-0.9,0.8-1.8,1.4-3,1.9c-1.1,0.5-2.3,0.7-3.6,0.7
			c-0.5,0-1,0-1.4-0.1c-0.4-0.1-0.8-0.1-1.1-0.2c-0.3-0.1-0.6-0.1-0.8,0c-0.3,0.1-0.5,0.2-0.6,0.5l-0.9,1.2
			c-0.3,0.5-0.2,0.8,0.5,0.8h4.1c1.3,0,2.5,0.2,3.7,0.6c1.2,0.4,2.2,0.9,3.1,1.7c0.9,0.7,1.6,1.6,2.1,2.6c0.5,1,0.8,2.2,0.8,3.4
			c0,1.8-0.4,3.3-1.2,4.4c-0.8,1.1-1.6,2-2.5,2.6c-0.4,0.2-0.8,0.3-1.2,0.2c-0.4-0.1-0.7-0.3-1-0.6L1898.1,503.9z M1895.7,483.7
			c0.6,0,1.2-0.1,1.7-0.3c0.6-0.2,1-0.6,1.4-1c0.4-0.4,0.7-0.9,1-1.4c0.3-0.6,0.4-1.2,0.4-1.8c0-0.6-0.1-1.2-0.4-1.8s-0.6-1-1-1.4
			c-0.4-0.4-0.9-0.7-1.4-1c-0.6-0.2-1.1-0.3-1.7-0.3c-0.6,0-1.2,0.1-1.7,0.3c-0.6,0.2-1,0.6-1.4,1s-0.7,0.9-1,1.4
			c-0.2,0.6-0.4,1.2-0.4,1.8c0,0.6,0.1,1.2,0.4,1.8c0.3,0.6,0.6,1,1,1.4s0.9,0.7,1.4,1C1894.5,483.6,1895.1,483.7,1895.7,483.7z"/>
		<path id="XMLID_380_" class="st41" d="M1911.6,494.7c-0.5,0-0.9-0.1-1.2-0.4c-0.3-0.3-0.4-0.7-0.4-1.2v-13.7
			c0-2.6,0.8-4.7,2.3-6.4c1.5-1.6,3.6-2.5,6.3-2.5h1.9c0.5,0,0.9,0.1,1.2,0.4c0.3,0.3,0.4,0.7,0.4,1.2v1.3c0,0.5-0.1,0.9-0.4,1.2
			c-0.3,0.3-0.7,0.4-1.2,0.4h-1.6c-1.4,0-2.4,0.4-3,1.3c-0.7,0.8-1,1.9-1,3.3v13.4c0,0.5-0.1,0.9-0.4,1.2c-0.3,0.3-0.7,0.4-1.2,0.4
			H1911.6z"/>
		<path id="XMLID_382_" class="st41" d="M1942.4,494.7c-0.5,0-0.9-0.2-1.2-0.5c-0.3-0.3-0.4-0.7-0.4-1.1c0-0.2-0.1-0.3-0.2-0.4
			c-0.2-0.1-0.3,0-0.5,0.2c-0.5,0.7-1.2,1.2-2.2,1.7c-1,0.4-2.2,0.6-3.6,0.6c-1.3,0-2.4-0.2-3.4-0.7c-1-0.5-1.9-1.1-2.7-2
			c-0.8-0.9-1.3-1.9-1.8-3.1c-0.4-1.2-0.6-2.5-0.6-3.9v-4.8c0-1.4,0.2-2.7,0.8-4c0.5-1.3,1.2-2.3,2.1-3.2c0.9-0.9,2-1.6,3.2-2.2
			c1.3-0.5,2.6-0.8,4.1-0.8h8c0.5,0,0.9,0.1,1.2,0.4c0.3,0.3,0.4,0.7,0.4,1.2v20.9c0,0.5-0.1,0.9-0.4,1.2c-0.3,0.3-0.7,0.4-1.2,0.4
			H1942.4z M1940.8,475.7c0-0.4-0.2-0.5-0.5-0.5h-4c-1.8,0-3.2,0.6-4.2,1.7s-1.5,2.4-1.5,4v5.3c0,1.4,0.4,2.5,1.2,3.3
			c0.8,0.9,1.9,1.3,3.3,1.3c1,0,1.8-0.2,2.5-0.5c0.7-0.3,1.3-0.8,1.7-1.4c0.5-0.6,0.8-1.2,1-1.9c0.2-0.7,0.3-1.4,0.3-2.2V475.7z
			 M1938.2,466.4c-0.3,0.4-0.6,0.6-1,0.6c-0.4,0-0.8-0.1-1.2-0.4l-1.1-0.9c-0.4-0.3-0.6-0.6-0.6-1c0-0.4,0.1-0.8,0.4-1.2l3.9-4.7
			c0.3-0.4,0.7-0.6,1.1-0.6c0.4,0,0.8,0.1,1.2,0.4l1.1,0.8c0.4,0.3,0.6,0.7,0.6,1.1s-0.1,0.8-0.4,1.2L1938.2,466.4z"/>
		<path id="XMLID_386_" class="st41" d="M1971.9,494.7c-0.5,0-0.9-0.1-1.2-0.4c-0.3-0.3-0.4-0.7-0.4-1.2v-17.4
			c0-0.4-0.2-0.5-0.5-0.5h-9.6c-0.4,0-0.5,0.2-0.5,0.5v17.4c0,0.5-0.1,0.9-0.4,1.2c-0.3,0.3-0.7,0.4-1.2,0.4h-1.6
			c-0.5,0-0.9-0.1-1.2-0.4c-0.3-0.3-0.4-0.7-0.4-1.2v-17.4c0-0.4-0.2-0.5-0.5-0.5h-2.7c-0.5,0-0.9-0.1-1.2-0.4
			c-0.3-0.3-0.4-0.7-0.4-1.2v-1.3c0-0.5,0.1-0.9,0.4-1.2c0.3-0.3,0.7-0.4,1.2-0.4h2.7c0.4,0,0.5-0.2,0.5-0.5v-2.7
			c0-1.3,0.2-2.5,0.6-3.6c0.4-1.1,1-2.1,1.7-2.9c0.8-0.8,1.7-1.4,2.7-1.9c1.1-0.5,2.3-0.7,3.6-0.7h1c0.5,0,0.9,0.1,1.2,0.4
			c0.3,0.3,0.4,0.7,0.4,1.2v1.3c0,0.5-0.1,0.9-0.4,1.2c-0.3,0.3-0.7,0.4-1.2,0.4h-0.8c-1.4,0-2.4,0.4-3,1.2c-0.7,0.8-1,1.9-1,3.3
			v2.7c0,0.4,0.2,0.5,0.5,0.5h13.4c0.5,0,0.9,0.1,1.2,0.4c0.3,0.3,0.4,0.7,0.4,1.2v20.9c0,0.5-0.1,0.9-0.4,1.2
			c-0.3,0.3-0.7,0.4-1.2,0.4H1971.9z M1971.9,466.9c-0.5,0-0.9-0.1-1.2-0.4s-0.4-0.7-0.4-1.2v-2.7c0-0.5,0.1-0.9,0.4-1.2
			s0.7-0.4,1.2-0.4h1.6c0.5,0,0.9,0.1,1.2,0.4c0.3,0.3,0.4,0.7,0.4,1.2v2.7c0,0.5-0.1,0.9-0.4,1.2c-0.3,0.3-0.7,0.4-1.2,0.4H1971.9z
			"/>
		<path id="XMLID_389_" class="st41" d="M1998.4,490c0.3,0.3,0.5,0.7,0.4,1.1c0,0.4-0.2,0.8-0.5,1.1c-0.6,0.7-1.5,1.4-2.8,2.1
			c-1.3,0.7-2.7,1-4.4,1c-1.6,0-3-0.3-4.2-0.8c-1.2-0.5-2.2-1.2-3-2.1c-0.8-0.9-1.4-1.9-1.8-3.1c-0.4-1.2-0.6-2.4-0.6-3.7v-5.9
			c0-1.3,0.2-2.5,0.7-3.7c0.4-1.2,1.1-2.2,1.9-3.1c0.8-0.9,1.8-1.6,3-2.1c1.2-0.5,2.5-0.8,4-0.8c1.5,0,2.8,0.3,3.9,0.8
			c1.1,0.5,2.1,1.2,2.8,1.9c0.3,0.3,0.5,0.7,0.5,1.1s-0.2,0.8-0.5,1.1l-1,1c-0.7,0.7-1.4,0.7-2.2-0.1c-0.4-0.4-0.9-0.7-1.5-0.9
			c-0.6-0.3-1.3-0.4-2-0.4c-1.7,0-2.9,0.5-3.7,1.5c-0.8,1-1.1,2.2-1.1,3.6v5.9c0,0.7,0.1,1.3,0.2,2c0.2,0.6,0.4,1.2,0.8,1.6
			c0.4,0.5,0.9,0.8,1.5,1.1c0.6,0.3,1.4,0.4,2.3,0.4c0.9,0,1.7-0.2,2.4-0.6c0.7-0.4,1.2-0.8,1.6-1.1c0.8-0.7,1.6-0.7,2.3,0
			L1998.4,490z"/>
		<path id="XMLID_391_" class="st41" d="M2020.1,494.7c-0.5,0-0.9-0.2-1.2-0.5c-0.3-0.3-0.4-0.7-0.4-1.1c0-0.2-0.1-0.3-0.2-0.4
			c-0.2-0.1-0.3,0-0.5,0.2c-0.5,0.7-1.2,1.2-2.2,1.7c-1,0.4-2.2,0.6-3.6,0.6c-1.3,0-2.4-0.2-3.4-0.7c-1-0.5-1.9-1.1-2.7-2
			c-0.8-0.9-1.3-1.9-1.8-3.1c-0.4-1.2-0.6-2.5-0.6-3.9v-4.8c0-1.4,0.2-2.7,0.8-4c0.5-1.3,1.2-2.3,2.1-3.2c0.9-0.9,2-1.6,3.2-2.2
			c1.3-0.5,2.6-0.8,4.1-0.8h8c0.5,0,0.9,0.1,1.2,0.4c0.3,0.3,0.4,0.7,0.4,1.2v20.9c0,0.5-0.1,0.9-0.4,1.2c-0.3,0.3-0.7,0.4-1.2,0.4
			H2020.1z M2018.5,475.7c0-0.4-0.2-0.5-0.5-0.5h-4c-1.8,0-3.2,0.6-4.2,1.7c-1,1.1-1.5,2.4-1.5,4v5.3c0,1.4,0.4,2.5,1.2,3.3
			c0.8,0.9,1.9,1.3,3.3,1.3c1,0,1.8-0.2,2.5-0.5c0.7-0.3,1.3-0.8,1.7-1.4c0.5-0.6,0.8-1.2,1-1.9c0.2-0.7,0.3-1.4,0.3-2.2V475.7z"/>
		<path id="XMLID_394_" class="st41" d="M2029.9,489.4c0.6-0.7,1.3-0.7,2.2,0.1c0.4,0.3,0.9,0.6,1.4,0.9c0.6,0.3,1.2,0.4,2,0.4
			c1,0,1.8-0.2,2.4-0.6c0.6-0.4,1-1,1-1.7c0-0.7-0.3-1.3-0.8-1.8c-0.6-0.5-1.6-1.1-3.1-1.9c-1-0.5-1.8-0.9-2.6-1.4
			c-0.8-0.5-1.4-1-1.9-1.6c-0.5-0.6-0.9-1.2-1.2-2c-0.3-0.7-0.4-1.6-0.4-2.5c0-1,0.2-1.9,0.5-2.7c0.4-0.9,0.9-1.6,1.5-2.3
			c0.7-0.6,1.5-1.2,2.4-1.5c0.9-0.4,2-0.6,3.2-0.6c1.4,0,2.7,0.3,3.8,0.8c1.1,0.5,1.9,1.1,2.4,1.6c0.3,0.4,0.4,0.7,0.5,1.2
			c0,0.4-0.1,0.8-0.5,1.1l-1,1c-0.3,0.3-0.6,0.5-1,0.6c-0.3,0.1-0.7,0-1-0.4c-1-0.9-2-1.3-3.2-1.3c-1,0-1.8,0.2-2.3,0.7
			c-0.5,0.5-0.7,1.1-0.7,1.8c0,0.7,0.3,1.3,1,1.8c0.7,0.5,1.5,1,2.6,1.4c1,0.4,1.9,0.9,2.7,1.4c0.8,0.5,1.5,1,2.1,1.6
			c0.6,0.6,1,1.3,1.3,2c0.3,0.7,0.5,1.6,0.5,2.5c0,1.2-0.2,2.2-0.7,3.1c-0.5,0.9-1.1,1.7-1.8,2.3c-0.8,0.6-1.6,1.1-2.6,1.4
			c-1,0.3-2,0.5-3,0.5c-1.6,0-3-0.2-4.1-0.7c-1.1-0.4-1.9-1-2.6-1.8c-0.3-0.3-0.4-0.7-0.5-1.1c0-0.4,0.1-0.8,0.5-1.1L2029.9,489.4z"
			/>
	</g>
</g>
</svg>
